<?xml version="1.0" encoding="UTF-8"?>
<svg width="188px" height="65px" viewBox="0 0 188 65" version="1.1" xmlns="http://www.w3.org/2000/svg" xmlns:xlink="http://www.w3.org/1999/xlink">
    <title>logo_secondlive@2x</title>
    <defs>
        <linearGradient x1="50%" y1="19.9640032%" x2="91.2841797%" y2="82.2549226%" id="linearGradient-1">
            <stop stop-color="#A219AF" offset="0%"></stop>
            <stop stop-color="#4BDCFF" offset="100%"></stop>
        </linearGradient>
        <linearGradient x1="22.59893%" y1="24.4897959%" x2="100%" y2="112.522513%" id="linearGradient-2">
            <stop stop-color="#D037DF" offset="0%"></stop>
            <stop stop-color="#5383FF" offset="100%"></stop>
        </linearGradient>
    </defs>
    <g id="211208" stroke="none" stroke-width="1" fill="none" fill-rule="evenodd">
        <g id="Home" transform="translate(-664.000000, -7155.000000)" fill-rule="nonzero">
            <g id="" transform="translate(462.000000, 7029.000000)">
                <g id="secondlive" transform="translate(202.000000, 126.000000)">
                    <g transform="translate(31.000000, 17.000000)">
                        <g id="" transform="translate(-0.000000, 0.000000)">
                            <g id="" transform="translate(0.000000, 0.000000)">
                                <g id="">
                                    <path d="M14.9453073,6.08286414 C14.3378904,6.43377658 13.5608954,6.22536665 13.2103393,5.61794969 L11.0671014,1.90540296 C10.716189,1.297986 10.9245989,0.520991039 11.5320159,0.170434856 C12.1394329,-0.180477584 12.9164278,0.0279323423 13.266984,0.635349306 L15.4102218,4.34789604 C15.760778,4.95531301 15.5527243,5.73195171 14.9453073,6.08286414 L14.9453073,6.08286414 Z M17.1416273,7.60870981 C16.568411,7.27774772 16.3721137,6.54492854 16.7030758,5.97206844 L18.9186337,2.134832 C19.2495957,1.56161565 19.982415,1.36531843 20.5552751,1.69628052 C21.1284915,2.02724261 21.3247887,2.76006179 20.9938266,3.33292189 L18.7782688,7.17015832 C18.4473067,7.74301842 17.7144875,7.93967189 17.1416273,7.60870981 L17.1416273,7.60870981 Z" id="" fill="#C347C4"></path>
                                    <path d="M23.3821686,31.1739942 L8.88004414,31.1739942 C3.97582013,31.1739942 0,27.1981741 0,22.2939501 L0,14.1413813 C0,9.23715726 3.97582013,5.26133715 8.88004414,5.26133715 L23.3825249,5.26133715 C28.2867489,5.26133715 32.2625691,9.23715726 32.2625691,14.1413813 L32.2625691,22.2935938 C32.2625691,27.1981741 28.2867489,31.1739942 23.3821686,31.1739942 Z" id="" fill="url(#linearGradient-1)"></path>
                                    <path d="M21.1832409,28.7001506 L10.7373221,28.7001506 C8.84384257,28.7001506 7.06326924,27.9624043 5.72428478,26.6224931 C4.38530032,25.282582 3.64806435,23.5011947 3.64806435,21.6059863 L3.64806435,15.729961 C3.64806435,13.8351709 4.38530032,12.0533653 5.72428478,10.7134541 C7.06326924,9.37354292 8.84342443,8.63579667 10.7373221,8.63579667 L21.1832409,8.63579667 C23.0767205,8.63579667 24.8572938,9.37354292 26.1962783,10.7134541 C27.5352627,12.0533653 28.2724987,13.8347525 28.2724987,15.729961 L28.2724987,21.6059863 C28.2724987,23.5007763 27.5352627,25.282582 26.1962783,26.6224931 C24.8568757,27.9624043 23.0767205,28.7001506 21.1832409,28.7001506 Z" id="" fill="#FFFFFF"></path>
                                </g>
                                <path d="M8.77539937,22.3449528 C8.51883426,22.3449528 8.2568808,22.3782204 8.00736187,22.3347166 C7.78009251,22.2928139 7.56289118,22.2059044 7.36781414,22.0788121 C7.18461252,21.95939 7.10503172,21.7444303 7.21818569,21.5213668 C7.34460308,21.2722865 7.44988186,20.989512 7.63888621,20.8001427 C8.10517992,20.3288519 8.6062902,19.8921083 9.11154534,19.4647479 C9.21143585,19.3798729 9.3938085,19.3986392 9.53804868,19.3696367 C9.49494241,19.5300035 9.48458029,19.7121222 9.40085469,19.844766 C9.27982552,20.0366943 9.0899922,20.1808539 8.95652863,20.3659581 C8.71032555,20.7080171 8.86492785,21.0628713 9.27982561,21.0667098 C9.65410403,21.070122 10.0283824,20.9976157 10.4034898,20.9652011 C10.6273107,20.9468613 10.6426467,20.8312778 10.5771583,20.6419085 C10.4470105,20.2665818 10.2691972,19.8942409 10.2207026,19.5065456 C10.0797783,18.3801394 10.0171914,17.2652489 10.4088781,16.1465198 C10.7831565,15.0781186 11.3165965,14.1393757 12.1244244,13.3861634 C12.9998132,12.5694016 14.0061786,11.9714382 15.2052787,11.8213075 C15.8112533,11.7453892 16.4292479,11.6694709 17.034808,11.7078566 C17.8505111,11.7590375 18.6168907,12.0401059 19.3559144,12.4312132 C20.6292071,13.1055215 21.536511,14.1112261 22.1163732,15.4419294 C22.2274547,15.6974074 22.3737673,15.7434702 22.5636006,15.5805443 C22.8446203,15.3395676 23.1098896,15.0768391 23.3714286,14.812831 C23.6802187,14.501054 23.3685272,14.079238 23.0274074,14.0822236 C22.8222383,14.0843561 22.6137531,14.1090936 22.4131432,14.0796646 C22.280923,14.0600452 22.159894,13.9610955 22.033891,13.8975459 C22.1375118,13.8024347 22.2345009,13.6343908 22.3455824,13.6241546 C23.1177648,13.5546338 23.893263,13.473171 24.6662744,13.4829807 C25.3435401,13.4919373 25.6311915,14.1525974 25.2071751,14.6976739 C24.6347737,15.4325463 23.9483893,16.0488495 23.199418,16.5964851 C21.5609655,17.7949712 19.774957,18.7277429 17.9528885,19.5662566 C16.3243836,20.3160567 14.6299759,20.9251094 12.9359827,21.5072921 C11.8844386,21.8685439 10.782742,22.0800916 9.69638132,22.3253334 C9.40251265,22.391442 9.08294601,22.3351431 8.77539937,22.3351431 L8.77539937,22.3449528 L8.77539937,22.3449528 Z M22.5561121,18.2119656 C22.489925,18.6855904 22.4627193,19.0767876 22.3782596,19.4523903 C22.1025477,20.6803395 21.5925415,21.7875433 20.7913931,22.6978119 C19.9053791,23.7038748 18.815119,24.355276 17.5571578,24.586519 C16.8912261,24.7090465 16.2033674,24.6943432 15.524848,24.7259776 C15.4001888,24.7317698 15.2698449,24.6716199 15.1476221,24.6248367 C14.4975265,24.3757715 14.4041337,23.9516032 14.8560739,23.3897586 C15.6430103,22.4108745 16.622011,21.7184823 17.6282176,21.0456945 C19.0875826,20.0685927 20.6009529,19.2082263 22.133408,18.3839498 C22.235734,18.3278099 22.3482116,18.2952843 22.5561121,18.2119656 L22.5561121,18.2119656 Z" id="" fill="url(#linearGradient-2)"></path>
                            </g>
                        </g>
                        <path d="M44.8579069,23.1006879 C45.7590709,23.1006879 46.538254,22.9513236 47.1954564,22.6525953 C47.8526589,22.3538669 48.3517842,21.940626 48.6928324,21.4128725 C49.0338806,20.8851191 49.2044047,20.2901518 49.2044047,19.6279705 C49.2044047,19.0753231 49.1060733,18.60856 48.9094105,18.2276813 C48.7127476,17.8468027 48.4389133,17.5318931 48.0879075,17.2829529 C47.7369016,17.0340125 47.3112137,16.8224133 46.8108437,16.6481551 C46.3104736,16.4738968 45.7516027,16.314575 45.1342307,16.1701897 C44.6413289,16.0457195 44.2878336,15.9511222 44.073745,15.8863977 C43.8596564,15.8216732 43.648057,15.7320548 43.4389472,15.6175422 C43.2298373,15.5030296 43.0655367,15.3661125 42.9460454,15.2067907 C42.826554,15.0474689 42.7668084,14.8582742 42.7668084,14.6392068 C42.7668084,14.2857115 42.9423113,13.9832491 43.2933172,13.7318194 C43.644323,13.4803896 44.1061072,13.3546748 44.67867,13.3546748 C45.2960419,13.3546748 45.7441345,13.4704321 46.0229476,13.7019465 C46.3017607,13.933461 46.5407434,14.2558387 46.7398957,14.6690796 C46.8942387,14.9578504 47.0373794,15.1657156 47.1693177,15.2926751 C47.3012561,15.4196347 47.4941848,15.4831144 47.7481039,15.4831144 C48.026917,15.4831144 48.2596762,15.3773148 48.4463815,15.1657156 C48.6330867,14.9541163 48.7264393,14.7163783 48.7264393,14.4525016 C48.7264393,14.1637308 48.6517572,13.8674918 48.5023931,13.5637847 C48.3530289,13.2600775 48.1165356,12.970062 47.7929132,12.6937383 C47.4692908,12.4174146 47.0622734,12.1958577 46.571861,12.0290676 C46.0814486,11.8622776 45.5001729,11.7788826 44.8280341,11.7788826 C43.9866159,11.7788826 43.2547314,11.9045975 42.6323806,12.1560272 C42.0100299,12.4074569 41.5345538,12.7671757 41.2059527,13.2351834 C40.8773514,13.7031912 40.7130509,14.2384129 40.7130509,14.8408484 C40.7130509,15.4731568 40.8686385,16.002155 41.1798139,16.4278429 C41.4909893,16.8535308 41.9116984,17.1896002 42.4419412,17.4360512 C42.9721842,17.682502 43.6306312,17.8978354 44.4172826,18.0820513 C45.0047817,18.216479 45.4740342,18.3434386 45.82504,18.46293 C46.1760459,18.5824213 46.4623272,18.7554347 46.6838841,18.9819705 C46.905441,19.2085062 47.0162194,19.5035004 47.0162194,19.8669532 C47.0162194,20.3250034 46.8108437,20.7071268 46.4000922,21.0133234 C45.9893406,21.31952 45.4553637,21.4726182 44.7981613,21.4726182 C44.3201959,21.4726182 43.9343384,21.3966915 43.6405889,21.2448378 C43.3468393,21.0929843 43.1190589,20.9000555 42.9572477,20.6660516 C42.7954365,20.4320478 42.6448277,20.1407876 42.5054211,19.7922712 C42.3909085,19.4985216 42.2527467,19.2769647 42.0909354,19.1276005 C41.9291242,18.9782364 41.7312167,18.9035542 41.4972128,18.9035542 C41.2084421,18.9035542 40.970704,18.9993963 40.7839989,19.1910803 C40.5972936,19.3827644 40.503941,19.6130342 40.503941,19.8818896 C40.503941,20.3449186 40.6595287,20.8216394 40.970704,21.3120517 C41.2818795,21.8024641 41.6864075,22.1945451 42.1842881,22.4882947 C42.8862998,22.8965568 43.777506,23.1006879 44.8579069,23.1006879 Z M54.7084749,23.1006879 C55.2810376,23.1006879 55.7876312,23.0260057 56.2282555,22.8766416 C56.6688799,22.7272773 57.0348221,22.5393274 57.3260823,22.3127918 C57.6173424,22.0862561 57.8351652,21.8497628 57.9795506,21.6033119 C58.1239359,21.356861 58.1961287,21.1415276 58.1961287,20.9573118 C58.1961287,20.748202 58.1314042,20.5863907 58.0019552,20.4718782 C57.8725062,20.3573656 57.7032269,20.3001094 57.494117,20.3001094 C57.2999436,20.3001094 57.1505793,20.3449186 57.0460244,20.4345371 C56.7921053,20.6735198 56.5854849,20.8627145 56.4261631,21.002121 C56.2668413,21.1415276 56.092583,21.2722213 55.9033884,21.394202 C55.7141937,21.5161828 55.5187757,21.6058013 55.317134,21.6630575 C55.1154923,21.7203138 54.8926908,21.7489419 54.6487293,21.7489419 C54.2852764,21.7489419 53.9529411,21.6593235 53.6517233,21.4800864 C53.3505056,21.3008494 53.1090335,21.0344833 52.927307,20.680988 C52.7455806,20.3274928 52.652228,19.9192307 52.6472492,19.4562018 L52.6472492,19.4562018 L56.6352729,19.4562018 C57.1680051,19.4562018 57.5812461,19.3802749 57.8749957,19.2284214 C58.1687452,19.0765678 58.31562,18.7442324 58.31562,18.2314154 C58.31562,17.6787679 58.173724,17.1360781 57.8899321,16.6033458 C57.6061401,16.0706136 57.1792075,15.6362127 56.6091342,15.3001433 C56.0390609,14.9640739 55.3557197,14.7960392 54.5591107,14.7960392 C53.9467176,14.7960392 53.3890913,14.8943706 52.8862319,15.0910334 C52.3833725,15.2876962 51.9601739,15.5702436 51.6166363,15.9386752 C51.2730987,16.3071069 51.0117114,16.7489759 50.8324743,17.2642823 C50.6532374,17.7795887 50.5636188,18.3384598 50.5636188,18.9408953 C50.5636188,20.2204485 50.9270717,21.2336355 51.6539773,21.9804565 C52.3808831,22.7272773 53.3990489,23.1006879 54.7084749,23.1006879 Z M56.3440128,18.2986293 L52.6472492,18.2986293 C52.7169525,17.611554 52.91486,17.0925135 53.2409718,16.7415076 C53.5670837,16.3905018 53.9840586,16.2149989 54.4918969,16.2149989 C55.0246291,16.2149989 55.4540512,16.3880124 55.780163,16.7340395 C56.1062747,17.0800665 56.2942247,17.6015965 56.3440128,18.2986293 L56.3440128,18.2986293 Z M63.6479214,23.0857514 C64.2403993,23.0857514 64.7731315,23.0060905 65.2461182,22.8467687 C65.7191047,22.6874469 66.1111857,22.4770923 66.4223611,22.2157051 C66.7335365,21.9543178 66.965051,21.6792387 67.1169045,21.3904679 C67.2687582,21.1016972 67.3446849,20.8303523 67.3446849,20.5764331 C67.3446849,20.3623444 67.2625347,20.1607028 67.0982341,19.9715082 C66.9339334,19.7823135 66.727313,19.6877162 66.4783727,19.6877162 C66.2692628,19.6877162 66.0925152,19.7524407 65.9481299,19.8818896 C65.8037445,20.0113386 65.6693167,20.1905757 65.5448466,20.4196007 C65.3208003,20.8079476 65.063147,21.0967183 64.7718869,21.285913 C64.4806267,21.4751076 64.1308656,21.569705 63.7226035,21.569705 C63.4188963,21.569705 63.1400831,21.511204 62.886164,21.394202 C62.6322449,21.2772001 62.4156669,21.1054312 62.2364299,20.8788956 C62.0571928,20.6523599 61.9202757,20.3785256 61.8256783,20.0573926 C61.731081,19.7362596 61.6837824,19.384009 61.6837824,19.0006409 C61.6837824,18.1841168 61.8679982,17.540606 62.2364299,17.0701089 C62.6048615,16.5996117 63.0902951,16.3643631 63.6927307,16.3643631 C64.1109504,16.3643631 64.4557327,16.4589604 64.7270776,16.6481551 C64.9984226,16.8373497 65.2585652,17.1211417 65.5075055,17.4995309 C65.6469121,17.6937043 65.7726269,17.8343557 65.88465,17.9214847 C65.9966732,18.0086139 66.1373245,18.0521784 66.3066039,18.0521784 C66.5655018,18.0521784 66.785814,17.9675387 66.9675404,17.7982593 C67.1492668,17.6289798 67.2401301,17.4223594 67.2401301,17.1783979 C67.2401301,16.9394152 67.1592244,16.681762 66.9974132,16.4054382 C66.835602,16.1291145 66.6015981,15.8689719 66.2954016,15.6250104 C65.989205,15.3810489 65.6157945,15.1818966 65.1751702,15.0275537 C64.7345458,14.8732107 64.250357,14.7960392 63.7226035,14.7960392 C62.8712276,14.7960392 62.1393431,14.9715421 61.52695,15.322548 C60.9145568,15.6735538 60.4465491,16.1701897 60.1229266,16.8124556 C59.7993042,17.4547217 59.637493,18.1940744 59.637493,19.0305138 C59.637493,20.2652577 59.9909883,21.2498166 60.6979787,21.9841905 C61.4049692,22.7185644 62.3882834,23.0857514 63.6479214,23.0857514 Z M72.6844545,23.1006879 C73.3068053,23.1006879 73.866921,23.0023564 74.3648016,22.8056936 C74.8626823,22.6090307 75.2908595,22.3264835 75.6493336,21.9580518 C76.0078076,21.5896201 76.281642,21.1489959 76.4708366,20.6361788 C76.6600313,20.1233618 76.7546286,19.563246 76.7546286,18.9558317 C76.7546286,18.3434386 76.661276,17.7833229 76.4745707,17.2754846 C76.2878655,16.7676464 76.0152759,16.3295115 75.6568018,15.9610798 C75.2983278,15.5926482 74.8676611,15.3088562 74.3648016,15.109704 C73.8619422,14.9105517 73.3018265,14.8109756 72.6844545,14.8109756 C72.0770402,14.8109756 71.5219034,14.909307 71.0190439,15.1059699 C70.5161845,15.3026327 70.0880072,15.5826905 69.7345119,15.9461434 C69.3810167,16.3095963 69.1096718,16.7477312 68.9204771,17.2605482 C68.7312825,17.7733652 68.6366851,18.3384598 68.6366851,18.9558317 C68.6366851,19.5682249 68.7300377,20.1270958 68.916743,20.6324447 C69.1034483,21.1377935 69.3772826,21.5759285 69.738246,21.9468495 C70.0992095,22.3177705 70.5261421,22.6028073 71.0190439,22.8019595 C71.5119457,23.0011118 72.0670826,23.1006879 72.6844545,23.1006879 Z M72.6844545,21.5846414 C72.2761925,21.5846414 71.9214525,21.4788418 71.6202347,21.2672425 C71.3190169,21.0556432 71.0875025,20.7506914 70.9256913,20.3523869 C70.7638801,19.9540824 70.6829745,19.488564 70.6829745,18.9558317 C70.6829745,18.4181207 70.7651248,17.9476234 70.9294254,17.5443402 C71.093726,17.1410569 71.3277298,16.836105 71.631437,16.6294845 C71.9351442,16.422864 72.28615,16.3195538 72.6844545,16.3195538 C73.3018265,16.3195538 73.7934836,16.5510684 74.1594259,17.0140973 C74.5253681,17.4771263 74.7083393,18.124371 74.7083393,18.9558317 C74.7083393,19.7773348 74.5253681,20.4208455 74.1594259,20.8863638 C73.7934836,21.3518822 73.3018265,21.5846414 72.6844545,21.5846414 Z M84.5589072,23.1006879 C84.8576356,23.1006879 85.1003528,22.9961329 85.2870576,22.787023 C85.4737632,22.5779132 85.5671155,22.2692272 85.5671155,21.8609651 L85.5671155,21.8609651 L85.5671155,18.0671148 C85.5671155,17.6190223 85.5471999,17.2505906 85.5073694,16.9618199 C85.467539,16.6730491 85.3804099,16.4041936 85.2459823,16.1552532 C85.0368731,15.7270759 84.7207184,15.3959854 84.2975199,15.1619814 C83.8743214,14.9279775 83.3938666,14.8109756 82.8561555,14.8109756 C82.303508,14.8109756 81.8143403,14.921754 81.3886524,15.1433109 C80.9629645,15.3648678 80.5708835,15.7121395 80.2124094,16.1851261 L80.2124094,16.1851261 L80.2124094,15.9386752 C80.2124094,15.6947136 80.1688449,15.4880932 80.0817158,15.3188138 C79.9945867,15.1495344 79.8788295,15.0225748 79.7344441,14.9379351 C79.5900587,14.8532955 79.4282475,14.8109756 79.2490105,14.8109756 C78.9552609,14.8109756 78.7237464,14.9068176 78.554467,15.0985017 C78.3851876,15.2901857 78.3005479,15.5802011 78.3005479,15.968548 L78.3005479,15.968548 L78.3005479,21.8609651 C78.3005479,22.2592696 78.3951452,22.5654662 78.5843399,22.7795549 C78.7735345,22.9936435 79.0150066,23.1006879 79.3087562,23.1006879 C79.6124633,23.1006879 79.8601589,22.9973776 80.051843,22.7907572 C80.243527,22.5841367 80.339369,22.274206 80.339369,21.8609651 L80.339369,21.8609651 L80.339369,19.3068375 C80.339369,18.4753769 80.3891571,17.907793 80.4887332,17.6040859 C80.6281397,17.2256966 80.8472072,16.9282129 81.1459356,16.7116348 C81.444664,16.4950568 81.7757546,16.3867678 82.1392074,16.3867678 C82.6968337,16.3867678 83.0689995,16.56476 83.2557047,16.9207447 C83.44241,17.2767294 83.5357625,17.7907911 83.5357625,18.46293 L83.5357625,18.46293 L83.5357625,21.8609651 C83.5357625,22.2592696 83.6303599,22.5654662 83.8195545,22.7795549 C84.0087492,22.9936435 84.2552,23.1006879 84.5589072,23.1006879 Z M94.1480881,23.1006879 C94.4318797,23.1006879 94.6633943,23.0036012 94.8426317,22.8094277 C95.0218683,22.6152542 95.111487,22.3239941 95.111487,21.9356472 L95.111487,21.9356472 L95.111487,12.9439233 C95.111487,12.5605552 95.0280916,12.2705398 94.8613017,12.0738769 C94.6945117,11.8772141 94.4567739,11.7788826 94.1480881,11.7788826 C93.8394015,11.7788826 93.6016636,11.885927 93.4348737,12.1000156 C93.2680837,12.3141043 93.1846892,12.6302585 93.1846892,13.0484782 L93.1846892,13.0484782 L93.1846892,16.0581665 C92.801321,15.6399468 92.407995,15.3300161 92.004712,15.1283744 C91.6014282,14.9267329 91.1060376,14.825912 90.5185379,14.825912 C89.5028619,14.825912 88.6838484,15.1818966 88.0614975,15.8938659 C87.4391467,16.6058352 87.1279712,17.5991071 87.1279712,18.8736814 C87.1279712,19.476117 87.2063873,20.0362326 87.3632194,20.5540285 C87.5200524,21.0718243 87.7503221,21.5224063 88.0540294,21.9057744 C88.3577367,22.2891424 88.7174547,22.5841367 89.1331852,22.7907572 C89.5489156,22.9973776 90.000742,23.1006879 90.4886653,23.1006879 C90.8570971,23.1006879 91.1969004,23.0496551 91.5080758,22.9475896 C91.8192512,22.845524 92.1080222,22.6961598 92.3743879,22.499497 C92.6407544,22.3028341 92.9108545,22.0476704 93.1846892,21.7340055 L93.1846892,21.7340055 L93.1846892,21.9356472 C93.1846892,22.3090576 93.2755519,22.5965837 93.4572781,22.7982253 C93.6390053,22.999867 93.869275,23.1006879 94.1480881,23.1006879 Z M91.1159946,21.5248957 C90.7624999,21.5248957 90.4363882,21.4265643 90.1376594,21.2299014 C89.8389314,21.0332386 89.6036824,20.7407337 89.4319139,20.3523869 C89.2601447,19.96404 89.1742604,19.4935428 89.1742604,18.9408953 C89.1742604,18.4181207 89.2551662,17.9588258 89.4169776,17.5630107 C89.5787883,17.1671956 89.8065691,16.8634884 90.1003186,16.6518892 C90.394068,16.4402899 90.727648,16.3344902 91.1010583,16.3344902 C91.4595324,16.3344902 91.7893786,16.4378005 92.0905962,16.6444209 C92.3918138,16.8510414 92.6307965,17.1497698 92.8075443,17.540606 C92.9842921,17.9314424 93.072666,18.3982054 93.072666,18.9408953 C93.072666,19.5184368 92.9842921,20.0001363 92.8075443,20.3859937 C92.6307965,20.7718513 92.3943035,21.0581326 92.0980644,21.2448378 C91.8018253,21.4315431 91.4744687,21.5248957 91.1159946,21.5248957 Z M103.968783,22.9139826 C104.332236,22.9139826 104.60856,22.8305876 104.797754,22.6637976 C104.986949,22.4970076 105.081546,22.2791848 105.081546,22.0103293 C105.081546,21.7464526 104.985704,21.5273851 104.79402,21.3531268 C104.602336,21.1788687 104.327257,21.0917396 103.968783,21.0917396 L103.968783,21.0917396 L99.4729208,21.0917396 L99.4729208,13.1231603 C99.4729208,12.6700889 99.3696106,12.3327748 99.1629902,12.111218 C98.9563698,11.8896611 98.6862696,11.7788826 98.3526897,11.7788826 C98.0240883,11.7788826 97.7589667,11.8909058 97.5573256,12.114952 C97.3556837,12.3389983 97.2548631,12.6750677 97.2548631,13.1231603 L97.2548631,13.1231603 L97.2548631,21.5547685 C97.2548631,22.0327339 97.3606622,22.378761 97.5722619,22.5928496 C97.7838608,22.8069382 98.131133,22.9139826 98.6140769,22.9139826 L98.6140769,22.9139826 L103.968783,22.9139826 Z M107.426564,13.862513 C107.700398,13.862513 107.936892,13.7741392 108.136044,13.5973916 C108.335196,13.420644 108.434772,13.1754378 108.434772,12.861773 C108.434772,12.5381506 108.332707,12.2916996 108.128576,12.1224203 C107.924444,11.9531408 107.690441,11.8685012 107.426564,11.8685012 C107.152729,11.8685012 106.912502,11.9618537 106.705881,12.148559 C106.499261,12.3352643 106.395951,12.5730022 106.395951,12.861773 C106.395951,13.1804166 106.496772,13.4268675 106.698413,13.6011257 C106.900055,13.7753839 107.142772,13.862513 107.426564,13.862513 Z M107.40416,23.1006879 C107.702887,23.1006879 107.949338,22.9961329 108.143512,22.787023 C108.337685,22.5779132 108.434772,22.2692272 108.434772,21.8609651 L108.434772,21.8609651 L108.434772,15.968548 C108.434772,15.6050952 108.337685,15.3213032 108.143512,15.1171722 C107.949338,14.9130411 107.702887,14.8109756 107.40416,14.8109756 C107.105431,14.8109756 106.862714,14.9130411 106.676009,15.1171722 C106.489304,15.3213032 106.395951,15.6250104 106.395951,16.0282937 L106.395951,16.0282937 L106.395951,21.8609651 C106.395951,22.2592696 106.489304,22.5654662 106.676009,22.7795549 C106.862714,22.9936435 107.105431,23.1006879 107.40416,23.1006879 Z M113.632646,23.1006879 C113.856692,23.1006879 114.047132,23.058368 114.203964,22.9737283 C114.360796,22.8890886 114.492735,22.770842 114.599779,22.6189883 C114.706823,22.4671348 114.80391,22.2841637 114.891039,22.0700749 C114.978168,21.8559863 115.049116,21.6792387 115.103883,21.5398321 L115.103883,21.5398321 L117.060554,16.6854961 C117.115321,16.5510684 117.163864,16.431577 117.206184,16.3270221 C117.248504,16.2224671 117.285845,16.110444 117.318207,15.9909527 C117.350569,15.8714613 117.36675,15.7669064 117.36675,15.6772878 C117.36675,15.4482628 117.275887,15.2466211 117.094161,15.0723629 C116.912434,14.8981047 116.692122,14.8109756 116.433224,14.8109756 C116.15939,14.8109756 115.955259,14.8918812 115.820831,15.0536924 C115.686403,15.2155036 115.549486,15.4905827 115.41008,15.8789295 L115.41008,15.8789295 L113.632646,20.7108609 L111.982172,16.0805712 C111.827828,15.622521 111.687177,15.2964092 111.560218,15.1022357 C111.433258,14.9080623 111.200499,14.8109756 110.86194,14.8109756 C110.687682,14.8109756 110.525871,14.8545401 110.376507,14.9416693 C110.227142,15.0287983 110.11014,15.1408215 110.025501,15.2777387 C109.940861,15.4146558 109.898542,15.5528177 109.898542,15.6922243 C109.898542,15.7818428 109.914723,15.8888871 109.947084,16.0133572 C109.979446,16.1378274 110.019277,16.2598082 110.066575,16.3792995 C110.113875,16.4987909 110.159929,16.6182822 110.204738,16.7377736 L110.204738,16.7377736 L112.146472,21.5398321 C112.340646,22.0028611 112.478808,22.3127918 112.560957,22.4696242 C112.643108,22.6264566 112.770068,22.770842 112.941837,22.9027803 C113.113605,23.0347186 113.343875,23.1006879 113.632646,23.1006879 Z M122.392855,23.1006879 C122.965418,23.1006879 123.472012,23.0260057 123.912635,22.8766416 C124.35326,22.7272773 124.719202,22.5393274 125.010463,22.3127918 C125.301723,22.0862561 125.519546,21.8497628 125.663931,21.6033119 C125.808316,21.356861 125.880509,21.1415276 125.880509,20.9573118 C125.880509,20.748202 125.815784,20.5863907 125.686336,20.4718782 C125.556887,20.3573656 125.387607,20.3001094 125.178497,20.3001094 C124.984324,20.3001094 124.83496,20.3449186 124.730405,20.4345371 C124.476486,20.6735198 124.269865,20.8627145 124.110543,21.002121 C123.951221,21.1415276 123.776963,21.2722213 123.587769,21.394202 C123.398574,21.5161828 123.203156,21.6058013 123.001514,21.6630575 C122.799873,21.7203138 122.577071,21.7489419 122.33311,21.7489419 C121.969656,21.7489419 121.637321,21.6593235 121.336104,21.4800864 C121.034886,21.3008494 120.793414,21.0344833 120.611688,20.680988 C120.429961,20.3274928 120.336608,19.9192307 120.33163,19.4562018 L120.33163,19.4562018 L124.319653,19.4562018 C124.852385,19.4562018 125.265627,19.3802749 125.559376,19.2284214 C125.853126,19.0765678 126,18.7442324 126,18.2314154 C126,17.6787679 125.858104,17.1360781 125.574313,16.6033458 C125.29052,16.0706136 124.863588,15.6362127 124.293515,15.3001433 C123.723441,14.9640739 123.0401,14.7960392 122.243491,14.7960392 C121.631098,14.7960392 121.073472,14.8943706 120.570612,15.0910334 C120.067753,15.2876962 119.644554,15.5702436 119.301016,15.9386752 C118.957479,16.3071069 118.696091,16.7489759 118.516855,17.2642823 C118.337617,17.7795887 118.247999,18.3384598 118.247999,18.9408953 C118.247999,20.2204485 118.611452,21.2336355 119.338358,21.9804565 C120.065263,22.7272773 121.083429,23.1006879 122.392855,23.1006879 Z M124.028393,18.2986293 L120.33163,18.2986293 C120.401333,17.611554 120.59924,17.0925135 120.925352,16.7415076 C121.251464,16.3905018 121.668439,16.2149989 122.176277,16.2149989 C122.709009,16.2149989 123.138432,16.3880124 123.464544,16.7340395 C123.790655,17.0800665 123.978605,17.6015965 124.028393,18.2986293 L124.028393,18.2986293 Z" id="SecondLive" fill="#000000"></path>
                    </g>
                </g>
            </g>
        </g>
    </g>
</svg>