<?xml version="1.0" encoding="UTF-8"?>
<svg width="188px" height="65px" viewBox="0 0 188 65" version="1.1" xmlns="http://www.w3.org/2000/svg" xmlns:xlink="http://www.w3.org/1999/xlink">
    <title>logo_babylons@2x</title>
    <g id="211208" stroke="none" stroke-width="1" fill="none" fill-rule="evenodd">
        <g id="Home" transform="translate(-1067.000000, -7234.000000)" fill-rule="nonzero">
            <g id="" transform="translate(462.000000, 7029.000000)">
                <g id="babylons" transform="translate(605.000000, 205.000000)">
                    <g transform="translate(61.000000, 15.000000)" id="babylons-logo-big">
                        <path d="M4.2797174,22.2297718 C3.53198517,22.2156866 2.80830303,22.493994 2.26279625,23.0053122 C2.25621148,23.0231089 2.24389293,23.0382226 2.2277746,23.0482835 C2.21165627,23.0582997 2.19265739,23.0627265 2.17376317,23.0607591 C2.16057544,23.0589258 2.14856178,23.0521738 2.14007486,23.041934 C2.13158338,23.0316942 2.12723298,23.0186374 2.12787917,23.0053122 L2.12787917,18.3977689 C2.13040022,18.3782283 2.13040022,18.3584642 2.12787917,18.3389237 C2.11993832,18.2880825 2.09224318,18.242473 2.05081425,18.2119772 C2.00938986,18.1814367 1.95758094,18.168514 1.90666849,18.1759815 L0.221907378,18.1759815 C0.211880065,18.1751766 0.20180042,18.1751766 0.191773106,18.1759815 C0.164581726,18.1778148 0.138022884,18.185014 0.113643794,18.1971765 C0.0892642483,18.209339 0.0675509169,18.2262414 0.0497684198,18.2468998 C0.0319858317,18.2675582 0.0184903012,18.2915256 0.0100654467,18.3174157 C0.00164060135,18.3433057 -0.00154509908,18.3706267 0.000695576558,18.3977689 L0.000695576558,33.4573555 C-0.000130378725,33.4673717 -0.000130378725,33.4774326 0.000695576558,33.4874488 C0.00251407659,33.5145909 0.00969975809,33.5410623 0.0218349688,33.5653874 C0.0339701795,33.5897125 0.0508132445,33.6113993 0.0713898284,33.6291513 C0.0919659573,33.6469032 0.115866321,33.6604072 0.141703889,33.6688584 C0.167541001,33.6773543 0.194802461,33.6806185 0.221907378,33.6784721 L1.90735108,33.6784721 C1.92662755,33.6816022 1.94629082,33.6816022 1.96556729,33.6784721 C1.99081874,33.6746713 2.0150827,33.6659966 2.03695758,33.6528056 C2.05883246,33.6396593 2.07789505,33.6223098 2.09303954,33.6017409 C2.10818404,33.5812166 2.11912375,33.5578753 2.12521705,33.533103 C2.13131489,33.5083308 2.13245255,33.4825749 2.12856631,33.4573555 L2.12856631,33.1096054 C2.12798383,33.0961461 2.13089168,33.0827763 2.13701228,33.0707926 C2.14313288,33.0588089 2.15225689,33.0485692 2.1634924,33.0411464 C2.18403849,33.0267929 2.21074614,33.0356912 2.24019782,33.0637276 C2.51692163,33.3275026 2.84522229,33.5311803 3.20448543,33.6620169 C3.54794423,33.7942398 3.91235869,33.8638166 4.2804,33.8673938 C4.71149483,33.8840279 5.14089229,33.8049267 5.53775273,33.6357691 C5.93456768,33.4666562 6.28897074,33.2116455 6.5753874,32.8892042 C7.16751538,32.179887 7.47199804,31.274449 7.42872155,30.3516614 L7.42872155,25.7536871 C7.48210044,24.8182452 7.18139481,23.8970227 6.58635442,23.1730389 C6.29484106,22.8560082 5.93702502,22.6071234 5.53834432,22.4440918 C5.13966362,22.2810602 4.70990211,22.2078614 4.2797174,22.2297718 Z M5.32068768,30.2065606 C5.3403009,30.6836271 5.17861701,31.1504985 4.86803651,31.5133176 C4.72391805,31.6793004 4.54471424,31.8112549 4.34336251,31.8995674 C4.14201078,31.98788 3.92353959,32.0303594 3.7037487,32.0239651 C3.48920015,32.0292415 3.27622156,31.9860466 3.08069009,31.8976447 C2.88515407,31.809198 2.71209816,31.6778248 2.57440974,31.5133176 C2.26913527,31.147905 2.11049576,30.6821962 2.12924891,30.2065606 L2.12924891,25.8864913 C2.11009985,25.4107663 2.26878943,24.9449234 2.57440974,24.5797343 C2.71258052,24.415719 2.88571379,24.2846587 3.0811224,24.1961674 C3.276531,24.1077207 3.48926841,24.064034 3.7037487,24.0683713 C3.92349408,24.0627819 4.1417696,24.1057085 4.34301667,24.1941105 C4.54426373,24.2824677 4.7235085,24.414154 4.86803651,24.5797343 C5.17875353,24.942464 5.34052843,25.4093801 5.32068768,25.8864913 L5.32068768,30.2065606 Z" id="" fill="#1E1E1E"></path>
                        <path d="M12.9759452,22.3082743 C12.0883904,22.2817716 11.2229677,22.5966079 10.5475915,23.1917427 C10.22624,23.4775459 9.96428628,23.8275416 9.77752012,24.2206874 C9.59071023,24.6138333 9.48298071,25.041961 9.46080496,25.4792781 C9.45835557,25.4984559 9.45835557,25.5178557 9.46080496,25.5370336 C9.46443531,25.5622045 9.47283323,25.5863988 9.48551758,25.6081958 C9.49820193,25.6300372 9.51491028,25.6490819 9.53472412,25.66422 C9.55453795,25.679358 9.57701987,25.6903232 9.60094519,25.6964938 C9.6248705,25.7026645 9.64971433,25.7039075 9.67407704,25.700134 L11.423118,25.700134 C11.4493178,25.6984027 11.4749052,25.6913442 11.4983931,25.6792693 C11.5219248,25.6672387 11.5428758,25.6504581 11.5600216,25.6299485 C11.5771673,25.6094832 11.5902016,25.5856441 11.598337,25.559896 C11.6064725,25.5341036 11.609578,25.506935 11.6074348,25.4799439 C11.6354716,25.1162307 11.7859342,24.7740926 12.0326668,24.5128832 C12.1496253,24.3894259 12.2900717,24.2922936 12.4451707,24.2276128 C12.6002259,24.1629319 12.7666097,24.1321231 12.9338244,24.1370507 C13.1484961,24.1328778 13.3609809,24.1817546 13.5536081,24.2796416 C13.7462353,24.3775285 13.9133626,24.5215843 14.0410372,24.6997785 C14.3425311,25.1303034 14.4927751,25.6540983 14.4669252,26.1846854 L14.4669252,26.821461 C14.4683686,26.8295405 14.4683686,26.8378421 14.4669252,26.8459216 C14.4638635,26.8658986 14.4532786,26.883789 14.4374888,26.8957308 C14.4217427,26.9076725 14.4020163,26.9127333 14.3826836,26.9098034 L13.1464404,26.9098034 C12.1014685,26.8549778 11.0691809,27.1663071 10.2171423,27.7932718 C9.82838875,28.1356762 9.52409551,28.5686428 9.32950004,29.0564793 C9.13490458,29.5442714 9.05560551,30.0729052 9.09811996,30.5986534 C9.09811996,31.816935 9.40726825,32.6668866 10.0256086,33.148508 C10.642418,33.6246247 11.3949063,33.8758456 12.1649777,33.8627496 C12.5762569,33.892715 12.9886733,33.8235949 13.3696413,33.6608495 C13.750653,33.4981042 14.0897626,33.246173 14.3602892,32.9248996 C14.3885884,32.9024811 14.4142633,32.8875206 14.4340334,32.9024811 C14.4453181,32.9092289 14.4544158,32.9193061 14.4601457,32.9314254 C14.4659192,32.9435004 14.4680187,32.9570847 14.4662691,32.970447 L14.4662691,33.4549984 C14.4652631,33.4658303 14.4652631,33.4767955 14.4662691,33.4876274 C14.4682811,33.5146184 14.4754106,33.5409436 14.4873514,33.5650491 C14.4992922,33.5891546 14.5157819,33.6105521 14.5358144,33.6279986 C14.5558469,33.6454451 14.5790724,33.6586299 14.6040912,33.6667094 C14.62911,33.6748334 14.655441,33.6777189 14.6815095,33.6751885 L16.3330997,33.6751885 C16.3592119,33.6733684 16.3846681,33.6662655 16.4080686,33.6542349 C16.4314253,33.64216 16.4522888,33.6254682 16.4693471,33.6050473 C16.4864491,33.5846265 16.4994396,33.5609205 16.5075751,33.5352613 C16.5157106,33.5096464 16.5188598,33.4825666 16.5167603,33.4556643 L16.5167603,25.9896219 C16.5424352,25.5013858 16.4686035,25.0129722 16.3000329,24.5560334 C16.1314622,24.0990502 15.8719141,23.6836633 15.5381844,23.3367307 C15.204411,22.9897982 14.8038479,22.7189999 14.3623887,22.5418267 C13.9209295,22.364698 13.4484155,22.2851011 12.9752891,22.3082743 L12.9759452,22.3082743 Z M14.4675813,30.1718575 C14.4815778,30.4275178 14.4390197,30.6830892 14.3432309,30.9192608 C14.2474422,31.1554325 14.1008723,31.3660337 13.914631,31.5351272 L13.914631,31.5270033 C13.5540455,31.8500523 13.0913291,32.0255829 12.6139163,32.0203889 C12.4263191,32.0296671 12.2388531,31.9992134 12.0630655,31.9309811 C11.8872341,31.8627488 11.7267989,31.7580697 11.5916012,31.6234696 C11.4543915,31.4616121 11.3497675,31.2731188 11.2838963,31.0690434 C11.2179814,30.864968 11.1921316,30.6493948 11.2078339,30.434887 C11.1915192,30.1813577 11.2288287,29.9272068 11.3171381,29.6900141 C11.4054912,29.4528658 11.5427009,29.2383581 11.7193195,29.0614069 C12.0998064,28.7312105 12.5875416,28.5624277 13.0838934,28.589108 L14.3839958,28.589108 C14.391344,28.5873767 14.3989983,28.5873767 14.4063903,28.589108 C14.4158816,28.5905286 14.4250231,28.5938581 14.4332898,28.5989189 C14.4415565,28.6039797 14.4487735,28.6106831 14.4545033,28.6186739 C14.4602769,28.6266202 14.4644321,28.6356321 14.466794,28.6452654 C14.4691559,28.6548987 14.4696371,28.6648872 14.4682374,28.6747424 L14.4675813,30.1718575 Z" id="" fill="#1E1E1E"></path>
                        <path d="M22.4566117,22.2304691 C21.7085628,22.2169644 20.9846841,22.4951525 20.4384636,23.006051 C20.4323186,23.0241616 20.4200741,23.0395444 20.4038241,23.0496506 C20.3876195,23.0597568 20.3683653,23.0639602 20.3494296,23.0615008 C20.3364569,23.0596226 20.3247131,23.0528256 20.3166564,23.0424958 C20.3085996,23.032166 20.3048671,23.0191085 20.3062782,23.006051 L20.3062782,18.3982612 C20.3075982,18.3873501 20.3075982,18.3763496 20.3062782,18.3654385 C20.3042754,18.3382949 20.2969014,18.3118221 20.2846115,18.2875852 C20.2723215,18.2633035 20.2552976,18.2417496 20.2345868,18.2240862 C20.2138759,18.2064674 20.1898877,18.1930969 20.1639422,18.1848241 C20.1380423,18.1765067 20.1107313,18.1734659 20.0836023,18.1757912 L18.398421,18.1757912 C18.3790757,18.173287 18.3595028,18.173287 18.340203,18.1757912 C18.2890404,18.183572 18.2431124,18.2112969 18.212433,18.2528843 C18.1817081,18.2944269 18.1687808,18.3464782 18.1764735,18.3975904 L18.1764735,33.4579824 C18.1730596,33.4772109 18.1730596,33.4968867 18.1764735,33.51616 C18.180206,33.5413807 18.1889455,33.5656623 18.2021003,33.5875292 C18.2153006,33.6093961 18.2326431,33.6284458 18.2532174,33.6435604 C18.2737462,33.6587196 18.2970971,33.6696307 18.3219047,33.6757123 C18.3467122,33.6818386 18.3724756,33.6829566 18.3977383,33.6790661 L20.0829195,33.6790661 C20.0929336,33.6801394 20.1030387,33.6801394 20.1130982,33.6790661 C20.1402272,33.6772774 20.1667189,33.6700779 20.1910712,33.6579594 C20.215378,33.645841 20.2370903,33.6289824 20.2548424,33.6084124 C20.2726401,33.5878423 20.2861591,33.5639631 20.2946255,33.5381163 C20.3030919,33.5123143 20.3063692,33.4850365 20.3041844,33.4579824 L20.3041844,33.1102137 C20.3029554,33.0967984 20.3054589,33.0833384 20.3113763,33.0712647 C20.3172936,33.0591909 20.3264428,33.0489953 20.3377769,33.0417511 C20.3596713,33.0266812 20.385025,33.03558 20.4158864,33.0643335 C20.6918188,33.3287038 21.0201429,33.532303 21.379738,33.661984 C21.7229011,33.7938115 22.0869115,33.863392 22.4545634,33.8673272 C22.8858045,33.8842304 23.3154069,33.8052145 23.7123727,33.6360478 C24.1093839,33.4668812 24.46379,33.2117673 24.7501461,32.8890852 C25.3414753,32.1792829 25.6454925,31.2739754 25.6023411,30.3514068 L25.6023411,25.7545728 C25.6570997,24.8190362 25.3564053,23.8973172 24.7604332,23.1737866 C24.4694798,22.8569178 24.1121605,22.6080644 23.7139203,22.4450241 C23.3157255,22.2819838 22.8863962,22.2086916 22.4566117,22.2304691 Z M23.4978901,30.2076845 C23.5166436,30.685 23.3541886,31.1518069 23.043025,31.5145113 C22.8990048,31.6806818 22.7197535,31.8126881 22.5183346,31.9010501 C22.3169158,31.9893673 22.0983366,32.0317596 21.8784373,32.0251861 C21.6634085,32.0307311 21.4498818,31.9876681 21.2537887,31.8992614 C21.057741,31.81081 20.8841795,31.6792956 20.7460767,31.5145113 C20.4417864,31.148632 20.2841108,30.6829877 20.3035016,30.2076845 L20.3035016,25.8873841 C20.2839742,25.4118572 20.4416498,24.9459447 20.7460767,24.5798865 C20.8845436,24.4155046 21.0581962,24.2842138 21.2541528,24.1957177 C21.4501094,24.1072216 21.6634541,24.0637561 21.8784373,24.0684961 C22.0982911,24.0626381 22.3166882,24.1054329 22.5180615,24.1938395 C22.7193893,24.2822462 22.8986862,24.4140737 23.043025,24.5798865 C23.3543251,24.942725 23.5168257,25.4098002 23.4978901,25.8873841 L23.4978901,30.2076845 Z" id="" fill="#1E1E1E"></path>
                        <path d="M34.5067911,22.3312844 L32.7690664,22.3087139 C32.7128388,22.3039764 32.6571271,22.3228373 32.6140107,22.3612741 C32.5708943,22.399711 32.5438552,22.4545505 32.5387397,22.5139489 L31.0313417,30.5109162 C31.0177577,30.5540013 31.0022392,30.5793428 30.9880104,30.5793428 C30.9737816,30.5793428 30.9608423,30.5560572 30.9472583,30.5109162 L29.4191404,22.514664 C29.4203011,22.5012111 29.4203011,22.4877135 29.4191404,22.4742606 C29.4147127,22.4474442 29.4052555,22.4218345 29.3913705,22.3988618 C29.3774856,22.3759338 29.3593879,22.356179 29.3381951,22.3406702 C29.3170023,22.325206 29.2931012,22.3143454 29.2679106,22.3087586 C29.2427199,22.3031272 29.2167125,22.3029037 29.1913929,22.3079988 L27.4724538,22.3079988 C27.3320568,22.3079988 27.2608696,22.3675313 27.2608696,22.4859257 L27.2822343,22.5543523 L29.97226,33.5316511 L29.9929799,33.6418219 C29.9219217,34.1965194 29.7849636,34.7394624 29.5854159,35.257913 C29.4660397,35.5787714 29.2439236,35.8451478 28.9578421,36.0105157 C28.6234428,36.1606876 28.2633799,36.2366227 27.9000929,36.2335835 C27.8818233,36.2312594 27.8633387,36.2312594 27.845069,36.2335835 C27.7967941,36.2413603 27.7534198,36.2690259 27.7244462,36.3105913 C27.6954297,36.3521568 27.6832213,36.4041806 27.6904861,36.4552659 L27.6904861,37.7675718 C27.6899703,37.8221432 27.7040702,37.8757313 27.7312382,37.9221684 C27.7369126,37.9397778 27.7466277,37.9555548 27.759524,37.9682032 C27.7723772,37.9808963 27.7879817,37.9899692 27.8049617,37.9947068 L27.9117425,37.9947068 C28.5908153,38.0256797 29.2693292,37.9205147 29.9114757,37.6847537 C30.3805118,37.4764349 30.7684305,37.105251 31.0112666,36.6324777 C31.3599378,35.9099988 31.6270188,35.1466249 31.8070503,34.3581777 L34.6769354,22.5748668 C34.6907344,22.5470672 34.6970965,22.515826 34.695377,22.4844955 C34.6936575,22.453165 34.6839423,22.4229072 34.6672202,22.3969846 C34.6470591,22.3736991 34.6220834,22.3556874 34.5942705,22.3442904 C34.5664147,22.3328934 34.5364954,22.3284687 34.5067911,22.3312844 Z" id="" fill="#1E1E1E"></path>
                        <path d="M43.3600303,22.3091032 C42.8688856,22.2842507 42.3776958,22.3569887 41.9146821,22.5231455 C41.4516684,22.6892579 41.0259226,22.9455494 40.661975,23.2772417 C40.3266535,23.6044073 40.0637524,23.9986746 39.8903304,24.4344812 C39.7169085,24.8702434 39.6368364,25.3377369 39.6553803,25.8065618 L39.6553803,30.358477 C39.634856,30.8285889 39.7130376,31.2977689 39.8849293,31.7356169 C40.0568209,32.1734649 40.3185518,32.5701731 40.6531981,32.9000459 C41.0189911,33.2322263 41.4467623,33.4884291 41.9118015,33.6539202 C42.3768857,33.8193669 42.8700108,33.8908179 43.3627309,33.8641015 C44.3582981,33.9096348 45.3323959,33.5634748 46.0768546,32.8993802 C46.4144266,32.5711051 46.6786329,32.174885 46.8519199,31.7368151 C47.0256569,31.2987008 47.1044237,30.8287221 47.0837193,30.357767 L47.0837193,25.8058961 C47.1026233,25.3371156 47.0225062,24.8696221 46.8492193,24.4339487 C46.6754822,23.9982309 46.4126262,23.6040966 46.0768546,23.2772417 C45.3314957,22.6121707 44.3568128,22.2648569 43.3600303,22.3091032 Z M44.985822,30.2035482 C45.0083268,30.6837787 44.8431415,31.1538462 44.5258239,31.5141189 C44.3782824,31.6749057 44.198154,31.8022305 43.9975912,31.8875279 C43.7969835,31.9728252 43.5805323,32.0141425 43.3627309,32.0086839 C43.1465048,32.0150301 42.9314939,31.9740679 42.7326415,31.8886374 C42.5337441,31.8032512 42.3558212,31.6754383 42.2111603,31.5141189 C41.8987037,31.1515385 41.7373893,30.6822254 41.7607043,30.2035482 L41.7607043,25.9383689 C41.7413951,25.464396 41.9023945,25.0007635 42.2111603,24.6414228 C42.3537957,24.4767305 42.5310435,24.3457666 42.730166,24.2580284 C42.9292884,24.1702901 43.1453345,24.1279077 43.3627309,24.1339433 C43.5817026,24.1289284 43.7990989,24.1717546 43.9999317,24.2593598 C44.2007646,24.3470092 44.3801728,24.4773518 44.5258239,24.6414228 C44.8408911,24.9977457 45.0056262,25.4626652 44.985822,25.9383689 L44.985822,30.2035482 Z" id="" fill="#1E1E1E"></path>
                        <path d="M53.2752325,22.3083096 C52.8487908,22.2857372 52.4228076,22.3630444 52.0316734,22.5340339 C51.6400806,22.7050686 51.2934248,22.9651718 51.0192181,23.2937159 C51.0132571,23.3121719 51.0008766,23.3278234 50.9843691,23.3380918 C50.9678617,23.348315 50.9481445,23.3524766 50.9288859,23.349853 C50.9160468,23.3479531 50.9041247,23.3410321 50.895871,23.3305827 C50.8880758,23.3201334 50.883949,23.3069246 50.8853246,23.2937159 L50.8853246,22.689191 C50.8862417,22.6790583 50.8862417,22.6688804 50.8853246,22.6587477 C50.8834904,22.6312898 50.8766124,22.6045105 50.8642318,22.5799025 C50.8518512,22.5552945 50.8348853,22.5333554 50.814251,22.5153969 C50.7936167,22.4974385 50.7693141,22.4837774 50.7431774,22.475228 C50.7174991,22.4666332 50.6899868,22.4633311 50.6624744,22.4655024 L48.9649611,22.4655024 C48.9544147,22.4646881 48.9438683,22.4646881 48.9333219,22.4655024 C48.9058095,22.4672665 48.8792143,22.474459 48.8544531,22.4867177 C48.829692,22.4989313 48.8076821,22.5159398 48.7897991,22.536748 C48.771916,22.5576015 48.7581598,22.5818024 48.7499061,22.6079484 C48.7411939,22.6340944 48.7379841,22.6617332 48.7398182,22.689191 L48.7398182,33.6443726 C48.7389012,33.65541 48.7389012,33.6665379 48.7398182,33.6776205 C48.7421109,33.7050331 48.7494476,33.7318124 48.7618281,33.7562848 C48.7746672,33.7808023 48.7916332,33.8026057 48.812726,33.8203832 C48.8333603,33.8381607 48.8576629,33.8515956 48.8837996,33.8598736 C48.9099364,33.8681969 48.9374488,33.8711825 48.9649611,33.8687398 L50.6899868,33.8687398 C50.7174991,33.8669756 50.744553,33.8597832 50.7688556,33.8475244 C50.7936167,33.8353109 50.8156266,33.8183024 50.8335096,33.7974941 C50.8513927,33.7766859 50.8651489,33.752485 50.8738611,33.7262937 C50.8821148,33.7001477 50.8857831,33.6725089 50.8834904,33.6450511 L50.8834904,26.2354144 C50.9059589,26.2354144 50.9059589,26.1890482 50.9059589,26.096949 C50.901832,25.5856089 51.0618623,25.0865276 51.3631228,24.6738457 C51.5029773,24.5066107 51.6799736,24.3741164 51.8794383,24.2866766 C52.0789029,24.1992367 52.2957921,24.1592034 52.5135984,24.1697432 C52.7254437,24.1603343 52.9363718,24.2014984 53.129417,24.289843 C53.3224621,24.3781876 53.4921217,24.5112247 53.6237226,24.6780074 C53.9144366,25.1089643 54.0547497,25.6240137 54.0240275,26.1433152 L54.0240275,33.6443726 C54.0231105,33.65541 54.0231105,33.6665379 54.0240275,33.6776205 C54.0263202,33.7049879 54.0336569,33.7316767 54.0460374,33.756149 C54.058418,33.7805761 54.075384,33.8023343 54.0964768,33.8201118 C54.1171111,33.8378893 54.1414137,33.8513242 54.1675504,33.8596927 C54.1936872,33.868016 54.2211995,33.871092 54.2482534,33.8687398 L55.9737375,33.8687398 C56.0007914,33.8668851 56.0273867,33.8596475 56.0521478,33.8473435 C56.0764504,33.8350847 56.0984603,33.8180762 56.1163433,33.797268 C56.1342264,33.7764597 56.1479825,33.7522588 56.1562363,33.726158 C56.1649485,33.700012 56.1681583,33.6724637 56.1658656,33.6450511 L56.1658656,25.9611978 C56.2245586,25.0022542 55.9608984,24.0513172 55.4175291,23.2605132 C55.160747,22.9430517 54.8328912,22.6912266 54.4605572,22.5257106 C54.0882231,22.3601493 53.6819571,22.2856919 53.2752325,22.3083096 Z" id="" fill="#1E1E1E"></path>
                        <path d="M64.7884597,29.0800857 C64.5080789,28.6629336 64.1399918,28.3092407 63.7084574,28.0426584 C63.2111432,27.7540852 62.6951681,27.4975109 62.1637977,27.2745511 C61.6021032,27.0395637 61.192962,26.8584313 60.9354409,26.731109 C60.6858508,26.6108328 60.463319,26.4433885 60.2804417,26.2384702 C60.0956984,26.0202227 59.9986614,25.7433181 60.0084584,25.4600856 C60.0056593,25.4161488 60.0056593,25.3720775 60.0084584,25.3281407 C60.019655,25.1435975 60.0677069,24.9630037 60.1502816,24.7966814 C60.2328563,24.6303591 60.3480877,24.4815846 60.4894443,24.3588849 C60.630801,24.2361852 60.7954838,24.141939 60.9736959,24.0815316 C61.1523744,24.0211691 61.3413165,23.9958123 61.529792,24.0069872 C61.7345959,23.9984602 61.9384667,24.0305488 62.1297414,24.101413 C62.3214826,24.1722773 62.4959625,24.2803912 62.643384,24.4192026 C62.7810084,24.5530323 62.8892419,24.7127573 62.9615531,24.8887286 C63.0338642,25.0646999 63.06932,25.2532374 63.0646548,25.4428968 L63.0646548,25.5981788 C63.0637218,25.6084561 63.0637218,25.6187784 63.0646548,25.6291006 C63.0665209,25.6562974 63.0739853,25.6828658 63.0865814,25.7072801 C63.098711,25.7316944 63.1159724,25.7534608 63.1374325,25.7712778 C63.1584261,25.7890949 63.1826853,25.8026484 63.2092771,25.8111754 C63.235869,25.8196576 63.2638604,25.8229338 63.2913853,25.8207796 L64.8593712,25.8207796 C64.8705678,25.8216323 64.8817644,25.8216323 64.8929609,25.8207796 C64.9209524,25.8188498 64.9480107,25.8115793 64.9727365,25.7993722 C64.9974622,25.7871651 65.0198554,25.7702456 65.0380498,25.7496012 C65.0562442,25.7290016 65.0697734,25.7050362 65.0786374,25.6791409 C65.0870348,25.6532905 65.0903004,25.6260039 65.0884344,25.598852 L65.0884344,25.530142 C65.1089614,25.0923006 65.0333846,24.6551773 64.8668356,24.2483924 C64.6998202,23.8416074 64.4455648,23.4746303 64.1213308,23.1722344 C63.3678952,22.6137578 62.4497766,22.3092525 61.5045998,22.3043478 C60.5594229,22.2996034 59.6380387,22.5946841 58.8790047,23.1454415 C58.360697,23.6767662 58.0308647,24.3572693 57.9384931,25.086197 C57.8461214,25.8150799 57.996342,26.5537465 58.3662952,27.1927812 C58.6326802,27.6026628 58.9858386,27.951778 59.4019777,28.2164755 C59.8713005,28.4958933 60.3611503,28.7413824 60.8673285,28.9509234 C61.4131611,29.1739729 61.8181036,29.34779 62.0826225,29.4723746 C62.347608,29.59853 62.5836689,29.7761618 62.7763432,29.9944991 C62.9774149,30.2253576 63.0828492,30.5218744 63.0711861,30.8251231 C63.0777175,31.0147825 63.0436612,31.2036341 62.9708836,31.3796054 C62.8985724,31.5555767 62.7889393,31.7147183 62.6499153,31.8467529 C62.5024938,31.982288 62.3294136,32.0876195 62.140005,32.1564193 C61.9505964,32.2252191 61.7485916,32.256096 61.5470534,32.2472996 C61.1141195,32.259417 60.6923821,32.112303 60.365349,31.8350843 C60.2151284,31.7118012 60.0947653,31.5574168 60.0131237,31.383106 C59.931482,31.2088401 59.890428,31.0189563 59.8927606,30.8271875 L59.8927606,30.6719504 C59.8936936,30.6614038 59.8936936,30.6508572 59.8927606,30.6403106 C59.8908945,30.6130689 59.8834301,30.5864107 59.8713005,30.5619066 C59.8587044,30.5374026 59.841443,30.5155913 59.8204494,30.4976845 C59.7994559,30.4797777 59.7747301,30.4661793 59.7481383,30.4576523 C59.7215464,30.4490804 59.693555,30.4458042 59.6660301,30.4479584 L58.0574566,30.4479584 C58.0457935,30.4471057 58.0345969,30.4471057 58.0229338,30.4479584 C57.9949424,30.4499331 57.967884,30.4573381 57.9426918,30.4697697 C57.917966,30.4822012 57.8955729,30.4993899 57.8773785,30.5203036 C57.859184,30.5412173 57.8456549,30.5654521 57.8372574,30.5916167 C57.82886,30.6177812 57.826087,30.6452922 57.8283935,30.6726236 L57.8283935,30.8787088 C57.8111321,31.2934374 57.8909076,31.7065952 58.0625883,32.0862282 C58.234269,32.4658613 58.4922566,32.8018718 58.8178901,33.0683195 C59.6212438,33.5977593 60.5696864,33.8770424 61.538656,33.869413 C62.5071591,33.8618284 63.4509364,33.5676902 64.2458927,33.0257291 C64.5799236,32.7446957 64.844909,32.3931121 65.0203219,31.9974123 C65.1957348,31.6017125 65.2769099,31.1722187 65.258249,30.7413336 C65.2769099,30.1538202 65.1131601,29.5745197 64.7884597,29.0800857 Z" id="" fill="#1E1E1E"></path>
                        <path d="M36.9103971,18.173913 L35.7863628,18.173913 C35.7161062,18.1740873 35.6488157,18.2088069 35.5992144,18.2704482 C35.5496131,18.3320896 35.5217391,18.4155995 35.5217391,18.5026815 L35.5217391,29.4455715 L35.5217391,32.6466102 C35.5220965,32.6994518 35.5308875,32.7516837 35.5475761,32.8002997 C35.5643005,32.8488723 35.5886008,32.8929143 35.6191192,32.9297684 C35.6496019,32.9666661 35.685695,32.9957225 35.7252903,33.0151951 C35.7648856,33.0347112 35.8071968,33.044295 35.8497939,33.0434783 L36.8512186,33.0434783 C36.9368059,33.0434783 37.0188911,33.001255 37.0793918,32.9262398 C37.1399283,32.8511811 37.173913,32.7494184 37.173913,32.6432994 L37.173913,29.0534627 L37.173913,18.5026815 C37.173913,18.4158173 37.1462178,18.3325252 37.0968309,18.2708839 C37.047444,18.209286 36.9804393,18.1744358 36.9103971,18.173913 Z" id="" fill="#1E1E1E"></path>
                        <path d="M17.4252836,8.26038383 C17.4101547,8.29131787 17.4023035,8.32528041 17.4023035,8.35971887 C17.4023035,8.39415732 17.4101547,8.42811987 17.4252836,8.45905391 L17.9337572,9.59098015 C17.9337572,9.59098015 18.3765104,10.3777863 17.98157,10.9202353 C17.6184754,11.4275535 15.5254324,15.0305686 15.2101506,15.5730176 C15.1985943,15.5945632 15.1810395,15.6123016 15.1596031,15.6240263 C15.1381668,15.6357942 15.1137311,15.6410725 15.0893396,15.6392554 L12.8323483,15.5100679 C12.7989588,15.5080345 12.7676864,15.4930217 12.7452356,15.4682745 C12.7227848,15.4435272 12.7109198,15.4109924 12.7121989,15.3776356 C12.7140514,15.3537969 12.7222996,15.33091 12.7361053,15.3113978 L15.4464355,11.3944562 C15.4651372,11.3672862 15.477355,11.3362224 15.4822069,11.3036443 C15.4870146,11.2710229 15.4843241,11.2377526 15.4743557,11.2063427 L14.6113885,8.63128944 C14.5996558,8.59633182 14.5756612,8.5668255 14.5438155,8.54817855 C14.5119256,8.5295316 14.4743899,8.5230852 14.4381334,8.52992098 L12.9916653,8.80084259 C12.5079802,8.86920033 12.0531416,9.07146135 11.6787554,9.384609 C11.3043692,9.6977134 11.0253879,10.1092443 10.8734369,10.5725194 C10.3317502,12.1965348 9.63939153,14.0165811 9.63939153,14.0165811 C9.53957579,14.3501928 9.32821167,14.6395884 9.04049711,14.8366144 C8.75278255,15.0336837 8.40609599,15.1263993 8.05821852,15.0994456 C6.78699035,15.0511192 3.96512935,15.0511192 3.96512935,15.0511192 C3.96512935,15.0511192 2.90302463,15.1524444 3.47191258,13.5277801 C4.23399227,11.3348379 5.64323345,8.40808846 5.19783384,6.39131891 C4.75243424,4.37454937 4.36141943,4.912369 5.74282865,4.56664326 C7.12423786,4.22091752 10.624493,3.63079124 10.624493,3.63079124 C10.9060325,3.85079066 11.2533366,3.97033017 11.6109177,3.97033017 C11.968543,3.97033017 12.3158471,3.85079066 12.5973866,3.63079124 C13.7815902,2.89230704 19.8939919,-0.403379509 29.2152732,0.0410366319 C38.5365545,0.485452773 51.590318,3.69369766 64.1768927,9.07500903 C64.7008923,9.24239895 65.2398884,9.35644389 65.786824,9.41545651 C66.2953858,9.41545651 66.2953858,11.7792497 64.6854546,11.6520957 C62.1038306,11.3717857 59.5614625,10.8051087 57.1055455,9.96253473 C54.1004875,8.94785499 49.0611822,7.30134209 46.564245,7.00394268 C46.775962,8.18886779 47.4547796,11.1043685 45.4633167,11.9918509 C43.6845853,12.8957306 41.9760292,13.931134 40.3521159,15.089538 C40.3217256,15.1100886 40.2859102,15.1210778 40.2492126,15.1210778 C40.212515,15.1210778 40.1766554,15.1100886 40.1463093,15.089538 L38.1555521,13.8384184 C38.139938,13.8287272 38.1264411,13.816094 38.1157229,13.8011677 C38.1050488,13.7862848 38.0974182,13.7694117 38.0933162,13.7515867 C38.08917,13.7337186 38.0885966,13.7152447 38.0916401,13.6972034 C38.0947276,13.6791189 38.1012997,13.6618564 38.1110475,13.6463245 C38.1221185,13.6281967 38.1373798,13.6129676 38.1555521,13.6019352 C39.8429806,12.4509727 41.6297396,11.4519979 43.4945693,10.6169086 C43.4987154,10.6167356 43.5025969,10.6149617 43.5054198,10.6120198 C43.5082868,10.6090345 43.5098747,10.6050974 43.5098747,10.6009873 C43.5096982,10.597007 43.5080221,10.593243 43.5051993,10.5904308 C43.5023764,10.5875754 43.4985831,10.5859313 43.4945693,10.5857583 C41.6680251,11.1190351 39.8835156,11.7862586 38.1555521,12.5819772 L37.1206531,13.0893387 C37.093174,13.1030535 37.0622986,13.1086779 37.0317319,13.1055196 C37.0011653,13.1023613 36.9721424,13.0905069 36.9480596,13.0714273 L35.1345272,11.6103888 C35.1269848,11.6048077 35.1206333,11.5978421 35.1158255,11.589795 C35.1110619,11.5817911 35.1079303,11.5728786 35.106607,11.56362 C35.1053279,11.5543614 35.1059013,11.5449298 35.1082831,11.5359308 C35.1106649,11.5268885 35.1148552,11.5184087 35.1205892,11.5110105 C35.1294107,11.4995022 35.141408,11.4907628 35.1550814,11.4858739 L36.3353595,11.0884472 C37.7293835,10.4771646 40.6275685,9.31214115 40.6275685,9.31214115 C40.6275685,9.31214115 42.0076545,8.17826802 40.9707705,7.49075359 C39.9338866,6.80328243 37.125946,5.9158 32.5808234,5.96745768 C28.8514287,6.10490865 25.1316054,6.43363149 21.4360414,6.95228499 C21.4360414,6.95228499 22.3235766,11.1838452 21.4360414,12.5104612 C20.6248565,13.7026115 18.6898515,15.986279 18.3287417,16.4094913 C18.3107017,16.4327675 18.2882068,16.45215 18.2625802,16.4666003 C18.2369095,16.4810506 18.2086365,16.4902226 18.1793931,16.4936405 C17.3021349,16.5635558 16.4193192,16.5028126 15.5599688,16.3134876 C15.5400762,16.3075604 15.5221244,16.2964414 15.5078776,16.2813422 C15.4936749,16.2662429 15.4837507,16.2476392 15.4791194,16.2274347 C15.4744439,16.2072303 15.4752379,16.1861605 15.481413,16.1663887 C15.4875439,16.1466169 15.4988796,16.1287919 15.514185,16.1147743 C16.6986974,14.7424711 17.8022722,13.3025889 18.8193076,11.8024394 C18.8193076,11.8024394 20.0533089,10.5215106 19.3131816,9.83403949 C19.3065214,9.83538068 17.7863934,7.64109735 17.4252836,8.26038383 Z" id="" fill="#FF8F4E"></path>
                    </g>
                </g>
            </g>
        </g>
    </g>
</svg>