<?xml version="1.0" encoding="UTF-8"?>
<svg width="188px" height="65px" viewBox="0 0 188 65" version="1.1" xmlns="http://www.w3.org/2000/svg" xmlns:xlink="http://www.w3.org/1999/xlink">
    <title>logo_treasureland@2x</title>
    <defs>
        <linearGradient x1="11.9595865%" y1="0%" x2="78.3365885%" y2="100%" id="linearGradient-1">
            <stop stop-color="#FEEF2E" offset="0%"></stop>
            <stop stop-color="#5CFF98" offset="100%"></stop>
        </linearGradient>
        <polygon id="path-2" points="2.36738826e-16 2.13064943e-16 8.1942091 2.13064943e-16 8.1942091 10.8953896 2.36738826e-16 10.8953896"></polygon>
        <polygon id="path-4" points="3.31434356e-16 -3.6694518e-16 8.27097383 -3.6694518e-16 8.27097383 10.9866543 3.31434356e-16 10.9866543"></polygon>
        <polygon id="path-6" points="0 10.9867396 127 10.9867396 127 0 0 0"></polygon>
        <polygon id="path-8" points="0 10.9867396 127 10.9867396 127 0 0 0"></polygon>
        <polygon id="path-10" points="0 10.9867396 127 10.9867396 127 0 0 0"></polygon>
    </defs>
    <g id="211208" stroke="none" stroke-width="1" fill="none" fill-rule="evenodd">
        <g id="Home" transform="translate(-866.000000, -7155.000000)">
            <g id="" transform="translate(462.000000, 7029.000000)">
                <g id="treasureland" transform="translate(404.000000, 126.000000)">
                    <g id="-22" transform="translate(17.000000, 21.000000)" fill-rule="nonzero">
                        <g id="path-2-link" fill="#222222">
                            <rect id="path-2" x="0" y="0" width="24" height="24" rx="4.692308"></rect>
                        </g>
                        <g id="" transform="translate(5.142857, 5.142857)">
                            <g id="path-4-link" fill="url(#linearGradient-1)">
                                <path d="M8,9.84609215e-15 L8,13.7142857 L4.57142857,13.7142857 L4.57142857,3.42857143 L0,3.42857143 L0,9.84609215e-15 L8,9.84609215e-15 Z M11.9998732,7.61295366e-17 C12.9467443,7.61295366e-17 13.7142857,0.767541402 13.7142857,1.71415889 C13.7142857,2.66077637 12.9467443,3.42831778 11.9998732,3.42831778 C11.0532557,3.42831778 10.2857143,2.66077637 10.2857143,1.71415889 C10.2857143,0.767541402 11.0532557,7.61295366e-17 11.9998732,7.61295366e-17 Z" id="path-4"></path>
                            </g>
                            <g id="path-4-link" fill="#FFFFFF">
                                <path d="M8,9.84609215e-15 L8,13.7142857 L4.57142857,13.7142857 L4.57142857,3.42857143 L0,3.42857143 L0,9.84609215e-15 L8,9.84609215e-15 Z M11.9998732,7.61295366e-17 C12.9467443,7.61295366e-17 13.7142857,0.767541402 13.7142857,1.71415889 C13.7142857,2.66077637 12.9467443,3.42831778 11.9998732,3.42831778 C11.0532557,3.42831778 10.2857143,2.66077637 10.2857143,1.71415889 C10.2857143,0.767541402 11.0532557,7.61295366e-17 11.9998732,7.61295366e-17 Z" id="path-4"></path>
                            </g>
                        </g>
                    </g>
                    <g id="download-3" transform="translate(45.000000, 28.000000)">
                        <path d="M124.051296,3.06504532 C123.809061,2.70083929 123.444854,2.45860391 122.777001,2.45860391 L121.608471,2.45860391 L121.608471,8.5281357 L122.777001,8.5281357 C123.444854,8.5281357 123.809061,8.28590031 124.051296,7.92084134 C124.263678,7.61719416 124.33959,7.32975287 124.33959,5.4933698 C124.33959,3.67233968 124.263678,3.3686925 124.051296,3.06504532 M125.872326,9.83313621 C125.129414,10.5769012 124.082002,10.8959013 122.958678,10.8959013 L118.952412,10.8959013 L118.952412,0.0908382709 L122.958678,0.0908382709 C124.082002,0.0908382709 125.129414,0.409838396 125.872326,1.15275045 C127.132121,2.41254506 126.99565,3.79345737 126.99565,5.4933698 C126.99565,7.19242929 127.132121,8.5733416 125.872326,9.83313621" id="Fill-21" fill="#000000" fill-rule="nonzero"></path>
                        <polygon id="Fill-19" fill="#000000" fill-rule="nonzero" points="114.416247 10.8956454 110.955863 5.46240802 110.955863 10.8956454 108.300656 10.8956454 108.300656 0.09143533 110.622363 0.09143533 114.081894 5.52381981 114.081894 0.09143533 116.737954 0.09143533 116.737954 10.8956454"></polygon>
                        <polygon id="Fill-7" fill="#000000" fill-rule="nonzero" points="103.401383 10.8956454 106.17856 10.8956454 102.247353 0.09143533 100.19944 0.09143533 96.269086 10.8956454 99.0462635 10.8956454 99.3618519 9.9412039 99.3627048 9.93864507 99.5776461 9.28699776 99.5810579 9.28699776 101.291206 4.18811341 103.186442 10.1842922 103.179618 10.1834393"></polygon>
                        <polygon id="Fill-17" fill="#000000" fill-rule="nonzero" points="87.5904289 10.8956454 87.5904289 0.09143533 90.2456358 0.09143533 90.2456358 8.52873276 94.7832846 8.52873276 94.7832846 10.8956454"></polygon>
                        <polygon id="Fill-15" fill="#000000" fill-rule="nonzero" points="77.3335741 10.8956454 77.3335741 0.09143533 84.6782534 0.09143533 84.6782534 2.45834802 79.988781 2.45834802 79.988781 4.2640252 83.9959002 4.2640252 83.9959002 6.63093789 79.988781 6.63093789 79.988781 8.52873276 84.6782534 8.52873276 84.6782534 10.8956454"></polygon>
                        <path d="M70.567553,2.47318921 L69.06467,2.47318921 L69.06467,4.65842536 L70.567553,4.65842536 C71.295965,4.65842536 71.7207299,4.12704279 71.7207299,3.56580728 C71.7207299,3.00457177 71.295965,2.47318921 70.567553,2.47318921 L70.567553,2.47318921 Z M71.8717005,10.8959866 L69.9602586,6.8743674 L69.06467,6.8743674 L69.06467,10.8959866 L66.4094631,10.8959866 L66.4094631,0.0909235651 L70.6886707,0.0909235651 C73.0862892,0.0909235651 74.3767898,1.78998305 74.3767898,3.56580728 C74.3767898,5.03798433 73.4649953,5.96342587 72.6154655,6.38819074 L74.9533782,10.8959866 L71.8717005,10.8959866 Z" id="Fill-13" fill="#000000" fill-rule="nonzero"></path>
                        <g id="Fill-11-Clipped" transform="translate(55.181534, 0.091350)">
                            <mask id="mask-3" fill="white">
                                <use xlink:href="#path-2"></use>
                            </mask>
                            <g id="path-3"></g>
                            <path d="M4.08217807,10.8954749 C1.83638307,10.8954749 2.36738826e-16,9.37809191 2.36738826e-16,7.01032628 L2.36738826e-16,2.13064943e-16 L2.65520692,2.13064943e-16 L2.65520692,6.94976743 C2.65520692,7.95112077 3.20194243,8.52770923 4.08217807,8.52770923 C4.96241371,8.52770923 5.53900217,7.95112077 5.53900217,6.94976743 L5.53900217,2.13064943e-16 L8.1942091,2.13064943e-16 L8.1942091,7.01032628 C8.1942091,9.37809191 6.32797307,10.8954749 4.08217807,10.8954749" id="Fill-11" fill="#000000" fill-rule="nonzero" mask="url(#mask-3)"></path>
                        </g>
                        <g id="Fill-9-Clipped" transform="translate(44.317897, 0.000085)">
                            <mask id="mask-5" fill="white">
                                <use xlink:href="#path-4"></use>
                            </mask>
                            <g id="path-1"></g>
                            <path d="M4.09753102,10.9867396 C2.44367743,10.9867396 1.09347102,10.6830924 3.31434356e-16,9.55976845 L1.69991243,7.86070896 C2.26200089,8.42194448 3.24800127,8.61897397 4.11288397,8.61897397 C5.1594432,8.61897397 5.66097281,8.27012089 5.66097281,7.64747359 C5.66097281,7.38988525 5.60041396,7.17750281 5.44859037,7.01032628 C5.31211973,6.87385564 5.08353141,6.76809089 4.73467833,6.72203205 L3.43053076,6.54035551 C2.47438332,6.40388486 1.74511833,6.08488474 1.25979461,5.58420807 C0.759117945,5.06817846 0.516882556,4.33976641 0.516882556,3.41432487 C0.516882556,1.44147115 2.00355961,-3.6694518e-16 4.46173704,-3.6694518e-16 C6.00982589,-3.6694518e-16 7.17835576,0.363353084 8.1037973,1.28964756 L6.43459076,2.9588541 C5.75138461,2.27564795 4.85664896,2.32170679 4.38582525,2.32170679 C3.46038371,2.32170679 3.08082474,2.85223641 3.08082474,3.32306013 C3.08082474,3.45953077 3.12603064,3.65656026 3.29406012,3.82373679 C3.43053076,3.96020744 3.6574132,4.09667808 4.03697217,4.14273692 L5.34197268,4.32441346 C6.31347306,4.46173704 7.01117922,4.76453128 7.46664999,5.22000205 C8.04323845,5.78123756 8.27097383,6.58556141 8.27097383,7.58776768 C8.27097383,9.78750384 6.37403191,10.9867396 4.09753102,10.9867396" id="Fill-9" fill="#000000" fill-rule="nonzero" mask="url(#mask-5)"></path>
                        </g>
                        <polygon id="Fill-5" fill="#000000" fill-rule="nonzero" points="40.4358417 10.8956454 43.2130193 10.8956454 39.2818119 0.09143533 37.2338993 0.09143533 33.3035448 10.8956454 36.0807224 10.8956454 36.3963107 9.9412039 36.3971637 9.93864507 36.6121049 9.28699776 36.6155167 9.28699776 38.3256644 4.18811341 40.2209005 10.1842922 40.2140769 10.1834393"></polygon>
                        <polygon id="Fill-3" fill="#000000" fill-rule="nonzero" points="24.1392228 10.8956454 24.1392228 0.09143533 31.4839022 0.09143533 31.4839022 2.45834802 26.7944297 2.45834802 26.7944297 4.2640252 30.8015489 4.2640252 30.8015489 6.63093789 26.7944297 6.63093789 26.7944297 8.52873276 31.4839022 8.52873276 31.4839022 10.8956454"></polygon>
                        <path d="M17.373287,2.47318921 L15.8704041,2.47318921 L15.8704041,4.65842536 L17.373287,4.65842536 C18.1016991,4.65842536 18.5264639,4.12704279 18.5264639,3.56580728 C18.5264639,3.00457177 18.1016991,2.47318921 17.373287,2.47318921 L17.373287,2.47318921 Z M18.6774346,10.8959866 L16.7659927,6.8743674 L15.8704041,6.8743674 L15.8704041,10.8959866 L13.2151971,10.8959866 L13.2151971,0.0909235651 L17.4944047,0.0909235651 C19.8920233,0.0909235651 21.1825238,1.78998305 21.1825238,3.56580728 C21.1825238,5.03798433 20.2707293,5.96342587 19.4211996,6.38819074 L21.7591123,10.8959866 L18.6774346,10.8959866 Z" id="Fill-1" fill="#000000" fill-rule="nonzero"></path>
                        <g id="t">
                            <g id="Fill-23-Clipped">
                                <mask id="mask-7" fill="white">
                                    <use xlink:href="#path-6"></use>
                                </mask>
                                <g id="path-5"></g>
                                <polygon id="Fill-23" fill="#000000" fill-rule="nonzero" mask="url(#mask-7)" points="3.24203068 10.8963278 6.0840318 10.8963278 6.0840318 2.9034129 3.24203068 2.9034129"></polygon>
                            </g>
                            <g id="Fill-25-Clipped">
                                <mask id="mask-9" fill="white">
                                    <use xlink:href="#path-8"></use>
                                </mask>
                                <g id="path-5"></g>
                                <polygon id="Fill-25" fill="#000000" fill-rule="nonzero" mask="url(#mask-9)" points="0 2.9034129 6.08488474 2.9034129 6.08488474 0.0614117888 0 0.0614117888"></polygon>
                            </g>
                            <g id="Fill-26-Clipped">
                                <mask id="mask-11" fill="white">
                                    <use xlink:href="#path-10"></use>
                                </mask>
                                <g id="path-5"></g>
                                <path d="M10.8379866,1.55823885 C10.8379866,2.38473917 10.1684275,3.0551512 9.34107425,3.0551512 C8.51372099,3.0551512 7.84330896,2.38473917 7.84330896,1.55823885 C7.84330896,0.730885581 8.51372099,0.0613264946 9.34107425,0.0613264946 C10.1684275,0.0613264946 10.8379866,0.730885581 10.8379866,1.55823885" id="Fill-26" fill="#000000" fill-rule="nonzero" mask="url(#mask-11)"></path>
                            </g>
                        </g>
                    </g>
                </g>
            </g>
        </g>
    </g>
</svg>